# xmcd CD database file
#
# Track frame offsets:
#	150
#	17240
#	41060
#	63270
#	81030
#	99797
#	121497
#	143477
#	161782
#	180540
#	202859
#
# Disc length: 2969 seconds
#
# Revision: 3
# Processed by: cddbd v1.5.2PL0 Copyright (c) Steve Scherf et al.
# Submitted via: CDex 1.70beta2
#
DISCID=860b970b
DTITLE=大塚 愛 - SINGLE COLLECTION (Disc-2)
DYEAR=2011
DGENRE=JPop
TTITLE0=フレンジャー
TTITLE1=ユメクイ
TTITLE2=恋愛写真
TTITLE3=CHU-LIP
TTITLE4=PEACH
TTITLE5=HEART
TTITLE6=ポケット
TTITLE7=ロケットスニーカー
TTITLE8=One × Time
TTITLE9=クラゲ、流れ星
TTITLE10=バイバイ
EXTD=YEAR: 2011
EXTT0=
EXTT1=
EXTT2=
EXTT3=
EXTT4=
EXTT5=
EXTT6=
EXTT7=
EXTT8=
EXTT9=
EXTT10=
PLAYORDER=
